<?xml version="1.0" encoding="UTF-8"?>
<?xml-stylesheet href="https://cdnjs.cloudflare.com/ajax/libs/font-awesome/6.6.0/css/all.min.css" type="text/css"?>
<svg aria-roledescription="er" role="graphics-document document" viewBox="0 0 175.5390625 474" style="max-width: 100%;" xmlns="http://www.w3.org/2000/svg" width="100%" id="graph-div" height="100%" xmlns:xlink="http://www.w3.org/1999/xlink"><style>#graph-div{font-family:"trebuchet ms",verdana,arial,sans-serif;font-size:16px;fill:#333;}#graph-div .error-icon{fill:#552222;}#graph-div .error-text{fill:#552222;stroke:#552222;}#graph-div .edge-thickness-normal{stroke-width:1px;}#graph-div .edge-thickness-thick{stroke-width:3.5px;}#graph-div .edge-pattern-solid{stroke-dasharray:0;}#graph-div .edge-thickness-invisible{stroke-width:0;fill:none;}#graph-div .edge-pattern-dashed{stroke-dasharray:3;}#graph-div .edge-pattern-dotted{stroke-dasharray:2;}#graph-div .marker{fill:#333333;stroke:#333333;}#graph-div .marker.cross{stroke:#333333;}#graph-div svg{font-family:"trebuchet ms",verdana,arial,sans-serif;font-size:16px;}#graph-div p{margin:0;}#graph-div .entityBox{fill:#ECECFF;stroke:#9370DB;}#graph-div .attributeBoxOdd{fill:#ffffff;stroke:#9370DB;}#graph-div .attributeBoxEven{fill:#f2f2f2;stroke:#9370DB;}#graph-div .relationshipLabelBox{fill:hsl(80, 100%, 96.2745098039%);opacity:0.7;background-color:hsl(80, 100%, 96.2745098039%);}#graph-div .relationshipLabelBox rect{opacity:0.5;}#graph-div .relationshipLine{stroke:#333333;}#graph-div .entityTitleText{text-anchor:middle;font-size:18px;fill:#333;}#graph-div #MD_PARENT_START{fill:#f5f5f5!important;stroke:#333333!important;stroke-width:1;}#graph-div #MD_PARENT_END{fill:#f5f5f5!important;stroke:#333333!important;stroke-width:1;}#graph-div :root{--mermaid-font-family:"trebuchet ms",verdana,arial,sans-serif;}</style><g></g><defs><marker orient="auto" markerHeight="240" markerWidth="190" refY="7" refX="0" id="MD_PARENT_START"><path d="M 18,7 L9,13 L1,7 L9,1 Z"></path></marker></defs><defs><marker orient="auto" markerHeight="28" markerWidth="20" refY="7" refX="19" id="MD_PARENT_END"><path d="M 18,7 L9,13 L1,7 L9,1 Z"></path></marker></defs><defs><marker orient="auto" markerHeight="18" markerWidth="18" refY="9" refX="0" id="ONLY_ONE_START"><path d="M9,0 L9,18 M15,0 L15,18" fill="none" stroke="gray"></path></marker></defs><defs><marker orient="auto" markerHeight="18" markerWidth="18" refY="9" refX="18" id="ONLY_ONE_END"><path d="M3,0 L3,18 M9,0 L9,18" fill="none" stroke="gray"></path></marker></defs><defs><marker orient="auto" markerHeight="18" markerWidth="30" refY="9" refX="0" id="ZERO_OR_ONE_START"><circle r="6" cy="9" cx="21" fill="white" stroke="gray"></circle><path d="M9,0 L9,18" fill="none" stroke="gray"></path></marker></defs><defs><marker orient="auto" markerHeight="18" markerWidth="30" refY="9" refX="30" id="ZERO_OR_ONE_END"><circle r="6" cy="9" cx="9" fill="white" stroke="gray"></circle><path d="M21,0 L21,18" fill="none" stroke="gray"></path></marker></defs><defs><marker orient="auto" markerHeight="36" markerWidth="45" refY="18" refX="18" id="ONE_OR_MORE_START"><path d="M0,18 Q 18,0 36,18 Q 18,36 0,18 M42,9 L42,27" fill="none" stroke="gray"></path></marker></defs><defs><marker orient="auto" markerHeight="36" markerWidth="45" refY="18" refX="27" id="ONE_OR_MORE_END"><path d="M3,9 L3,27 M9,18 Q27,0 45,18 Q27,36 9,18" fill="none" stroke="gray"></path></marker></defs><defs><marker orient="auto" markerHeight="36" markerWidth="57" refY="18" refX="18" id="ZERO_OR_MORE_START"><circle r="6" cy="18" cx="48" fill="white" stroke="gray"></circle><path d="M0,18 Q18,0 36,18 Q18,36 0,18" fill="none" stroke="gray"></path></marker></defs><defs><marker orient="auto" markerHeight="36" markerWidth="57" refY="18" refX="39" id="ZERO_OR_MORE_END"><circle r="6" cy="18" cx="9" fill="white" stroke="gray"></circle><path d="M21,18 Q39,0 57,18 Q39,36 21,18" fill="none" stroke="gray"></path></marker></defs><path style="stroke: gray; fill: none;" marker-start="url(#ONLY_ONE_START)" marker-end="url(#ONE_OR_MORE_END)" d="M87.77,198L87.77,206.333C87.77,214.667,87.77,231.333,87.77,248C87.77,264.667,87.77,281.333,87.77,289.667L87.77,298" class="er relationshipLine"></path><g transform="translate(20,298 )" id="entity-Product-8913f459-c6e1-5923-8b2e-55129fac4b99"><rect height="156" width="135.5390625" y="0" x="0" class="er entityBox"></rect><text style="dominant-baseline: middle; text-anchor: middle; font-size: 12px;" transform="translate(67.76953125,12)" y="0" x="0" id="text-entity-Product-8913f459-c6e1-5923-8b2e-55129fac4b99" class="er entityLabel">Product</text><rect height="22" width="51.6328125" y="24" x="0" class="er attributeBoxOdd"></rect><text style="dominant-baseline: middle; font-size: 10.2px;" transform="translate(5,35)" y="0" x="0" id="text-entity-Product-8913f459-c6e1-5923-8b2e-55129fac4b99-attr-1-type" class="er entityLabel">int</text><rect height="22" width="62.34375" y="24" x="51.6328125" class="er attributeBoxOdd"></rect><text style="dominant-baseline: middle; font-size: 10.2px;" transform="translate(56.6328125,35)" y="0" x="0" id="text-entity-Product-8913f459-c6e1-5923-8b2e-55129fac4b99-attr-1-name" class="er entityLabel">id</text><rect height="22" width="21.5625" y="24" x="113.9765625" class="er attributeBoxOdd"></rect><text style="dominant-baseline: middle; font-size: 10.2px;" transform="translate(118.9765625,35)" y="0" x="0" id="text-entity-Product-8913f459-c6e1-5923-8b2e-55129fac4b99-attr-1-key" class="er entityLabel">PK</text><rect height="22" width="51.6328125" y="46" x="0" class="er attributeBoxEven"></rect><text style="dominant-baseline: middle; font-size: 10.2px;" transform="translate(5,57)" y="0" x="0" id="text-entity-Product-8913f459-c6e1-5923-8b2e-55129fac4b99-attr-2-type" class="er entityLabel">string</text><rect height="22" width="62.34375" y="46" x="51.6328125" class="er attributeBoxEven"></rect><text style="dominant-baseline: middle; font-size: 10.2px;" transform="translate(56.6328125,57)" y="0" x="0" id="text-entity-Product-8913f459-c6e1-5923-8b2e-55129fac4b99-attr-2-name" class="er entityLabel">name</text><rect height="22" width="21.5625" y="46" x="113.9765625" class="er attributeBoxEven"></rect><text style="dominant-baseline: middle; font-size: 10.2px;" transform="translate(118.9765625,57)" y="0" x="0" id="text-entity-Product-8913f459-c6e1-5923-8b2e-55129fac4b99-attr-2-key" class="er entityLabel"></text><rect height="22" width="51.6328125" y="68" x="0" class="er attributeBoxOdd"></rect><text style="dominant-baseline: middle; font-size: 10.2px;" transform="translate(5,79)" y="0" x="0" id="text-entity-Product-8913f459-c6e1-5923-8b2e-55129fac4b99-attr-3-type" class="er entityLabel">decimal</text><rect height="22" width="62.34375" y="68" x="51.6328125" class="er attributeBoxOdd"></rect><text style="dominant-baseline: middle; font-size: 10.2px;" transform="translate(56.6328125,79)" y="0" x="0" id="text-entity-Product-8913f459-c6e1-5923-8b2e-55129fac4b99-attr-3-name" class="er entityLabel">price</text><rect height="22" width="21.5625" y="68" x="113.9765625" class="er attributeBoxOdd"></rect><text style="dominant-baseline: middle; font-size: 10.2px;" transform="translate(118.9765625,79)" y="0" x="0" id="text-entity-Product-8913f459-c6e1-5923-8b2e-55129fac4b99-attr-3-key" class="er entityLabel"></text><rect height="22" width="51.6328125" y="90" x="0" class="er attributeBoxEven"></rect><text style="dominant-baseline: middle; font-size: 10.2px;" transform="translate(5,101)" y="0" x="0" id="text-entity-Product-8913f459-c6e1-5923-8b2e-55129fac4b99-attr-4-type" class="er entityLabel">datetime</text><rect height="22" width="62.34375" y="90" x="51.6328125" class="er attributeBoxEven"></rect><text style="dominant-baseline: middle; font-size: 10.2px;" transform="translate(56.6328125,101)" y="0" x="0" id="text-entity-Product-8913f459-c6e1-5923-8b2e-55129fac4b99-attr-4-name" class="er entityLabel">created_at</text><rect height="22" width="21.5625" y="90" x="113.9765625" class="er attributeBoxEven"></rect><text style="dominant-baseline: middle; font-size: 10.2px;" transform="translate(118.9765625,101)" y="0" x="0" id="text-entity-Product-8913f459-c6e1-5923-8b2e-55129fac4b99-attr-4-key" class="er entityLabel"></text><rect height="22" width="51.6328125" y="112" x="0" class="er attributeBoxOdd"></rect><text style="dominant-baseline: middle; font-size: 10.2px;" transform="translate(5,123)" y="0" x="0" id="text-entity-Product-8913f459-c6e1-5923-8b2e-55129fac4b99-attr-5-type" class="er entityLabel">datetime</text><rect height="22" width="62.34375" y="112" x="51.6328125" class="er attributeBoxOdd"></rect><text style="dominant-baseline: middle; font-size: 10.2px;" transform="translate(56.6328125,123)" y="0" x="0" id="text-entity-Product-8913f459-c6e1-5923-8b2e-55129fac4b99-attr-5-name" class="er entityLabel">updated_at</text><rect height="22" width="21.5625" y="112" x="113.9765625" class="er attributeBoxOdd"></rect><text style="dominant-baseline: middle; font-size: 10.2px;" transform="translate(118.9765625,123)" y="0" x="0" id="text-entity-Product-8913f459-c6e1-5923-8b2e-55129fac4b99-attr-5-key" class="er entityLabel"></text><rect height="22" width="51.6328125" y="134" x="0" class="er attributeBoxEven"></rect><text style="dominant-baseline: middle; font-size: 10.2px;" transform="translate(5,145)" y="0" x="0" id="text-entity-Product-8913f459-c6e1-5923-8b2e-55129fac4b99-attr-6-type" class="er entityLabel">datetime</text><rect height="22" width="62.34375" y="134" x="51.6328125" class="er attributeBoxEven"></rect><text style="dominant-baseline: middle; font-size: 10.2px;" transform="translate(56.6328125,145)" y="0" x="0" id="text-entity-Product-8913f459-c6e1-5923-8b2e-55129fac4b99-attr-6-name" class="er entityLabel">deleted_at</text><rect height="22" width="21.5625" y="134" x="113.9765625" class="er attributeBoxEven"></rect><text style="dominant-baseline: middle; font-size: 10.2px;" transform="translate(118.9765625,145)" y="0" x="0" id="text-entity-Product-8913f459-c6e1-5923-8b2e-55129fac4b99-attr-6-key" class="er entityLabel"></text></g><g transform="translate(20,20 )" id="entity-Order-3ec22774-e93b-529c-bc12-1dfdb28f8e64"><rect height="178" width="135.5390625" y="0" x="0" class="er entityBox"></rect><text style="dominant-baseline: middle; text-anchor: middle; font-size: 12px;" transform="translate(67.76953125,12)" y="0" x="0" id="text-entity-Order-3ec22774-e93b-529c-bc12-1dfdb28f8e64" class="er entityLabel">Order</text><rect height="22" width="51.6328125" y="24" x="0" class="er attributeBoxOdd"></rect><text style="dominant-baseline: middle; font-size: 10.2px;" transform="translate(5,35)" y="0" x="0" id="text-entity-Order-3ec22774-e93b-529c-bc12-1dfdb28f8e64-attr-1-type" class="er entityLabel">int</text><rect height="22" width="62.34375" y="24" x="51.6328125" class="er attributeBoxOdd"></rect><text style="dominant-baseline: middle; font-size: 10.2px;" transform="translate(56.6328125,35)" y="0" x="0" id="text-entity-Order-3ec22774-e93b-529c-bc12-1dfdb28f8e64-attr-1-name" class="er entityLabel">id</text><rect height="22" width="21.5625" y="24" x="113.9765625" class="er attributeBoxOdd"></rect><text style="dominant-baseline: middle; font-size: 10.2px;" transform="translate(118.9765625,35)" y="0" x="0" id="text-entity-Order-3ec22774-e93b-529c-bc12-1dfdb28f8e64-attr-1-key" class="er entityLabel">PK</text><rect height="22" width="51.6328125" y="46" x="0" class="er attributeBoxEven"></rect><text style="dominant-baseline: middle; font-size: 10.2px;" transform="translate(5,57)" y="0" x="0" id="text-entity-Order-3ec22774-e93b-529c-bc12-1dfdb28f8e64-attr-2-type" class="er entityLabel">string</text><rect height="22" width="62.34375" y="46" x="51.6328125" class="er attributeBoxEven"></rect><text style="dominant-baseline: middle; font-size: 10.2px;" transform="translate(56.6328125,57)" y="0" x="0" id="text-entity-Order-3ec22774-e93b-529c-bc12-1dfdb28f8e64-attr-2-name" class="er entityLabel">name</text><rect height="22" width="21.5625" y="46" x="113.9765625" class="er attributeBoxEven"></rect><text style="dominant-baseline: middle; font-size: 10.2px;" transform="translate(118.9765625,57)" y="0" x="0" id="text-entity-Order-3ec22774-e93b-529c-bc12-1dfdb28f8e64-attr-2-key" class="er entityLabel"></text><rect height="22" width="51.6328125" y="68" x="0" class="er attributeBoxOdd"></rect><text style="dominant-baseline: middle; font-size: 10.2px;" transform="translate(5,79)" y="0" x="0" id="text-entity-Order-3ec22774-e93b-529c-bc12-1dfdb28f8e64-attr-3-type" class="er entityLabel">string</text><rect height="22" width="62.34375" y="68" x="51.6328125" class="er attributeBoxOdd"></rect><text style="dominant-baseline: middle; font-size: 10.2px;" transform="translate(56.6328125,79)" y="0" x="0" id="text-entity-Order-3ec22774-e93b-529c-bc12-1dfdb28f8e64-attr-3-name" class="er entityLabel">description</text><rect height="22" width="21.5625" y="68" x="113.9765625" class="er attributeBoxOdd"></rect><text style="dominant-baseline: middle; font-size: 10.2px;" transform="translate(118.9765625,79)" y="0" x="0" id="text-entity-Order-3ec22774-e93b-529c-bc12-1dfdb28f8e64-attr-3-key" class="er entityLabel"></text><rect height="22" width="51.6328125" y="90" x="0" class="er attributeBoxEven"></rect><text style="dominant-baseline: middle; font-size: 10.2px;" transform="translate(5,101)" y="0" x="0" id="text-entity-Order-3ec22774-e93b-529c-bc12-1dfdb28f8e64-attr-4-type" class="er entityLabel">date</text><rect height="22" width="62.34375" y="90" x="51.6328125" class="er attributeBoxEven"></rect><text style="dominant-baseline: middle; font-size: 10.2px;" transform="translate(56.6328125,101)" y="0" x="0" id="text-entity-Order-3ec22774-e93b-529c-bc12-1dfdb28f8e64-attr-4-name" class="er entityLabel">date</text><rect height="22" width="21.5625" y="90" x="113.9765625" class="er attributeBoxEven"></rect><text style="dominant-baseline: middle; font-size: 10.2px;" transform="translate(118.9765625,101)" y="0" x="0" id="text-entity-Order-3ec22774-e93b-529c-bc12-1dfdb28f8e64-attr-4-key" class="er entityLabel"></text><rect height="22" width="51.6328125" y="112" x="0" class="er attributeBoxOdd"></rect><text style="dominant-baseline: middle; font-size: 10.2px;" transform="translate(5,123)" y="0" x="0" id="text-entity-Order-3ec22774-e93b-529c-bc12-1dfdb28f8e64-attr-5-type" class="er entityLabel">datetime</text><rect height="22" width="62.34375" y="112" x="51.6328125" class="er attributeBoxOdd"></rect><text style="dominant-baseline: middle; font-size: 10.2px;" transform="translate(56.6328125,123)" y="0" x="0" id="text-entity-Order-3ec22774-e93b-529c-bc12-1dfdb28f8e64-attr-5-name" class="er entityLabel">created_at</text><rect height="22" width="21.5625" y="112" x="113.9765625" class="er attributeBoxOdd"></rect><text style="dominant-baseline: middle; font-size: 10.2px;" transform="translate(118.9765625,123)" y="0" x="0" id="text-entity-Order-3ec22774-e93b-529c-bc12-1dfdb28f8e64-attr-5-key" class="er entityLabel"></text><rect height="22" width="51.6328125" y="134" x="0" class="er attributeBoxEven"></rect><text style="dominant-baseline: middle; font-size: 10.2px;" transform="translate(5,145)" y="0" x="0" id="text-entity-Order-3ec22774-e93b-529c-bc12-1dfdb28f8e64-attr-6-type" class="er entityLabel">datetime</text><rect height="22" width="62.34375" y="134" x="51.6328125" class="er attributeBoxEven"></rect><text style="dominant-baseline: middle; font-size: 10.2px;" transform="translate(56.6328125,145)" y="0" x="0" id="text-entity-Order-3ec22774-e93b-529c-bc12-1dfdb28f8e64-attr-6-name" class="er entityLabel">updated_at</text><rect height="22" width="21.5625" y="134" x="113.9765625" class="er attributeBoxEven"></rect><text style="dominant-baseline: middle; font-size: 10.2px;" transform="translate(118.9765625,145)" y="0" x="0" id="text-entity-Order-3ec22774-e93b-529c-bc12-1dfdb28f8e64-attr-6-key" class="er entityLabel"></text><rect height="22" width="51.6328125" y="156" x="0" class="er attributeBoxOdd"></rect><text style="dominant-baseline: middle; font-size: 10.2px;" transform="translate(5,167)" y="0" x="0" id="text-entity-Order-3ec22774-e93b-529c-bc12-1dfdb28f8e64-attr-7-type" class="er entityLabel">datetime</text><rect height="22" width="62.34375" y="156" x="51.6328125" class="er attributeBoxOdd"></rect><text style="dominant-baseline: middle; font-size: 10.2px;" transform="translate(56.6328125,167)" y="0" x="0" id="text-entity-Order-3ec22774-e93b-529c-bc12-1dfdb28f8e64-attr-7-name" class="er entityLabel">deleted_at</text><rect height="22" width="21.5625" y="156" x="113.9765625" class="er attributeBoxOdd"></rect><text style="dominant-baseline: middle; font-size: 10.2px;" transform="translate(118.9765625,167)" y="0" x="0" id="text-entity-Order-3ec22774-e93b-529c-bc12-1dfdb28f8e64-attr-7-key" class="er entityLabel"></text></g><rect height="14" width="112.2890625" y="241" x="31.625465393066406" class="er relationshipLabelBox"></rect><text style="text-anchor: middle; dominant-baseline: middle; font-size: 12px;" y="248" x="87.7699966430664" id="rel6" class="er relationshipLabel">contains at least one</text></svg>